<svg width="32" height="32" viewBox="0 0 32 32" fill="none" xmlns="http://www.w3.org/2000/svg">
<ellipse cx="8" cy="8" rx="8" ry="8" fill="#644FFF"/>
<path d="M24 9.53991e-08C28.4183 1.48087e-07 32 3.58172 32 8C32 10.1911 31.1192 12.1764 29.6923 13.6212C28.2419 15.0898 26.2272 16 24 16C21.7855 16 16 16 16 16C16 16 16 10.2038 16 8C16 5.97111 16.7553 4.11862 18 2.70835C19.4659 1.04751 21.6106 6.69059e-08 24 9.53991e-08Z" fill="#FF375F"/>
<path d="M8.00001 16C8.00001 16 8.00001 22.9287 8.00001 24C8.00001 29.5711 6.24596 32 0 32C0 32 2.34349e-07 26.2038 2.63018e-07 24C3.26385e-07 19.1289 1.68784 16 8.00001 16Z" fill="#FF4A37"/>
<path d="M16 16C16 16 16 22.9287 16 24C16 29.4979 14.3923 32 8 32C8 32 8 26.2038 8 24C8 18.8067 9.77501 16 16 16Z" fill="#20D5E6"/>
</svg>
