
<svg width="32" height="32" viewBox="0 0 32 32" fill="none" xmlns="http://www.w3.org/2000/svg">
<rect width="32" height="32" rx="8" fill="#161616"/>
<circle cx="12" cy="12" r="4" fill="#644FFF"/>
<path d="M20 8C22.2091 8 24 9.79086 24 12C24 13.0955 23.5596 14.0882 22.8461 14.8106C22.1209 15.5449 21.1136 16 20 16C18.8927 16 16 16 16 16C16 16 16 13.1019 16 12C16 10.9856 16.3776 10.0593 17 9.35418C17.7329 8.52376 18.8053 8 20 8Z" fill="#FF375F"/>
<path d="M12 16C12 16 12 19.4643 12 20C12 22.7856 11.123 24 8 24C8 24 8 21.1019 8 20C8 17.5645 8.84392 16 12 16Z" fill="#FF4A37"/>
<path d="M16 16C16 16 16 19.4643 16 20C16 22.7489 15.1962 24 12 24C12 24 12 21.1019 12 20C12 17.4033 12.8875 16 16 16Z" fill="#00E9FF"/>
</svg>
