<svg version="1.2" xmlns="http://www.w3.org/2000/svg" viewBox="0 0 601 318" width="601" height="318"><style>.a{fill:#787a7f}</style><path class="a" d="m275.9 135v-0.3c2.9-1.9 7.6-5.7 7.6-11.4 0-10.5-7.3-16.9-18.4-16.9h-14.9l50.1-105.9h-299.7l61.9 130.7v-25.8l32.9 23.9 33-23.8v62.8h-16.8v-29.1h-0.5l-15.7 11.4-15.6-11.4h-0.5v27.6l71.2 150.6 70.5-149.1h-35.7v-61.8h16.8v46.6h26.1l9-19.1v34.3h30.8c11.2 0 19-7.2 19-18.6 0-7.9-5.1-12.2-11.1-14.7zm-21.9-14.6h9c2.2 0 4.1 2.6 4.1 4.8 0 2.3-1.9 5-4.1 5h-9zm-74.5 1.2h-25.6v8.3h18.8v14.9h-18.8v8.3h25.6v15.2h-42.5v-61.8h42.5zm84.7 32.7h-10.2v-12.6h10.2c3.1 0 5.5 2.9 5.5 6.3 0 3.1-2.4 6.3-5.5 6.3z"/><path class="a" d="m327.5 169.7c18.4 0 34.3-14 34.3-32.4 0-18.3-15.9-32.3-34.3-32.3-18.4 0-34.3 14-34.3 32.3 0 18.4 15.9 32.4 34.3 32.4zm0-48.7c9 0 16.3 7.4 16.3 16.3 0 9-7.3 16.4-16.3 16.4-9 0-16.4-7.4-16.4-16.4 0-8.9 7.4-16.3 16.4-16.3z"/><path class="a" d="m396 169.7c16.4 0 26.5-8.7 26.5-24.9v-38.4h-17.2v39.2c0 5.7-3.6 9.3-9.3 9.3-5.7 0-9.3-3.6-9.3-9.3v-39.2h-17.1v38.5c0 16.1 10.1 24.8 26.4 24.8z"/><path class="a" d="m483.8 128.9c0-12.9-10.3-22.5-23.3-22.5h-28.1v61.9h16.8v-16.9h7.9l7.7 16.9h18.9l-10.5-20.8c5.9-4.1 10.6-10.2 10.6-18.6zm-23.9 7.4h-10.7v-14.7h10.7c3.8 0 6.3 4.3 6.3 7.3 0 3.1-2.5 7.4-6.3 7.4z"/><path class="a" d="m527.5 133.7h-0.4l-35-28.2v62.8h16.8v-27.3h0.4l35 28.3v-62.9h-16.8z"/><path class="a" d="m554.2 168.3h46.4v-15.2h-29.5v-8.3h21.4v-14.9h-21.4v-8.3h29.5v-15.2h-46.4z"/></svg>