<svg width="330" height="110" viewBox="0 0 330 110" fill="none" xmlns="http://www.w3.org/2000/svg">
<ellipse cx="55" cy="55" rx="55" ry="55" fill="#644FFF"/>
<path d="M165 6.55869e-07C195.376 1.01809e-06 220 24.6243 220 55C220 70.0635 213.944 83.7126 204.135 93.6457C194.163 103.743 180.312 110 165 110C149.775 110 110 110 110 110C110 110 110 70.1509 110 55C110 41.0514 115.193 28.3155 123.75 18.6199C133.828 7.20163 148.573 4.59978e-07 165 6.55869e-07Z" fill="#FF375F"/>
<path d="M275 6.01213e-07C275 6.01213e-07 275 47.6345 275 55C275 93.3015 262.941 110 220 110C220 110 220 70.1509 220 55C220 21.5114 231.604 1.26844e-07 275 6.01213e-07Z" fill="#FF4A37"/>
<path d="M330 6.01213e-07C330 6.01213e-07 330 47.6345 330 55C330 92.798 318.947 110 275 110C275 110 275 70.1509 275 55C275 19.296 287.203 1.33395e-07 330 6.01213e-07Z" fill="#20D5E6"/>
</svg>
